<?xml version="1.0" standalone="no"?>
<!DOCTYPE svg PUBLIC "-//W3C//DTD SVG 20010904//EN"
 "http://www.w3.org/TR/2001/REC-SVG-20010904/DTD/svg10.dtd">
<svg version="1.0" xmlns="http://www.w3.org/2000/svg"
 width="150.000000pt" height="120.000000pt" viewBox="0 0 150.000000 120.000000"
 preserveAspectRatio="xMidYMid meet">

<g transform="translate(0.000000,120.000000) scale(0.100000,-0.100000)"
fill="#000000" stroke="none">
<path d="M885 1056 c-117 -37 -130 -44 -133 -66 -6 -54 -22 -77 -48 -72 -22 4
-24 1 -24 -37 0 -53 24 -111 46 -111 17 0 17 0 -2 73 -5 22 -5 22 108 19 89
-3 120 -8 146 -23 41 -24 53 -24 100 0 29 15 64 20 150 23 l113 3 -3 -30 c-2
-21 2 -30 14 -33 12 -2 19 6 23 31 11 59 4 82 -25 79 -14 -1 -49 -5 -79 -9
-40 -4 -55 -2 -62 8 -20 32 -9 46 44 60 83 22 70 38 -73 86 -69 22 -134 41
-145 41 -11 0 -78 -18 -150 -42z m239 -25 c65 -21 84 -30 69 -35 -12 -4 -40
-2 -64 3 -53 13 -138 13 -198 2 -84 -17 -78 2 9 30 47 15 87 27 90 28 3 0 45
-12 94 -28z m-269 -89 c-3 -7 -5 -20 -5 -28 0 -8 -4 -14 -10 -14 -5 0 -10 9
-10 20 0 11 -9 25 -20 32 -31 20 -24 27 15 15 24 -7 34 -15 30 -25z m286 13
c10 -3 19 -17 21 -30 4 -20 0 -23 -32 -28 -21 -2 -53 -12 -71 -21 -33 -15 -37
-15 -74 4 -22 11 -52 20 -67 20 -21 0 -28 5 -28 19 0 23 11 31 54 42 34 9 171
5 197 -6z m-351 -45 c0 -5 -4 -10 -10 -10 -5 0 -10 5 -10 10 0 6 5 10 10 10 6
0 10 -4 10 -10z"/>
<path d="M780 787 c-47 -31 -74 -81 -74 -137 0 -115 120 -191 229 -146 28 12
36 12 45 1 8 -10 3 -14 -23 -19 -50 -9 -123 -62 -159 -115 l-32 -46 -14 45
c-7 25 -12 67 -10 95 2 40 0 50 -14 53 -36 7 -33 -129 6 -222 8 -19 30 -52 50
-73 25 -29 32 -43 24 -51 -6 -6 -16 -8 -23 -6 -21 8 -27 -14 -15 -50 10 -30
15 -34 45 -33 19 1 35 5 35 11 0 6 5 5 12 -2 21 -21 41 -14 36 13 -3 14 -4 25
-3 25 1 0 23 -7 49 -16 48 -17 178 -16 219 1 13 5 17 2 17 -14 0 -14 6 -21 20
-21 14 0 21 9 26 35 3 19 11 38 16 41 9 6 6 -12 -9 -53 -7 -18 27 -29 38 -12
6 10 9 10 9 2 0 -23 37 -14 44 10 10 39 7 67 -9 67 -8 0 -15 -5 -15 -11 0 -8
-5 -8 -15 1 -13 11 -11 17 15 47 17 18 42 57 58 86 24 47 27 63 28 157 0 66 5
114 13 129 7 13 13 46 13 72 0 162 -197 219 -296 86 -29 -40 -29 -134 0 -173
39 -53 71 -69 132 -68 31 0 67 4 80 8 21 8 22 6 22 -55 0 -35 -3 -74 -6 -86
-6 -20 -8 -19 -38 19 -41 54 -72 76 -137 99 -42 14 -53 22 -51 36 1 11 -13 33
-33 53 -33 32 -35 33 -53 16 -19 -16 -19 -16 -9 22 20 73 -15 152 -84 187 -43
23 -120 19 -159 -8z m151 -34 c32 -19 59 -68 59 -106 0 -31 -38 -88 -70 -104
-51 -26 -122 -8 -154 39 -26 37 -18 41 13 6 73 -82 203 1 161 103 -14 32 -55
59 -90 59 -30 0 -80 -28 -80 -45 0 -17 35 -21 45 -5 3 6 18 10 33 10 24 0 25
-1 7 -14 -19 -13 -18 -15 5 -39 18 -19 28 -23 37 -15 9 7 13 7 13 -1 0 -18
-38 -51 -60 -51 -23 0 -60 33 -60 54 0 24 -22 30 -37 11 -17 -24 -17 -3 1 39
29 70 111 98 177 59z m398 -9 c91 -77 31 -224 -87 -211 -40 4 -102 46 -102 68
0 5 11 -3 24 -16 32 -32 69 -40 107 -25 40 17 59 47 59 93 0 78 -92 126 -151
78 -18 -15 -21 -22 -13 -31 9 -9 17 -9 34 0 16 9 20 9 15 1 -9 -15 40 -65 55
-56 15 9 12 26 -7 49 -18 21 -18 21 5 2 50 -43 5 -124 -54 -98 -13 7 -27 20
-30 29 -17 55 -36 62 -45 17 l-7 -29 -1 28 c-1 40 27 95 58 112 43 24 105 19
140 -11z m-266 -251 l-16 -25 -14 27 c-11 21 -12 29 -2 41 10 13 14 12 30 -2
17 -15 17 -18 2 -41z m-17 -73 c7 0 19 9 28 21 12 17 20 20 48 14 55 -12 103
-42 146 -90 22 -25 45 -45 51 -45 36 0 -70 -117 -136 -150 -56 -28 -157 -38
-220 -21 -51 14 -133 69 -152 103 -13 23 -13 30 4 68 24 53 86 107 145 124 42
13 46 13 59 -5 7 -10 19 -19 27 -19z"/>
<path d="M100 441 l0 -269 71 -62 72 -61 173 3 c157 3 175 5 201 24 50 37 53
53 53 277 0 229 6 204 -70 267 -30 25 -38 33 -72 71 -17 18 -33 19 -223 19
l-205 0 0 -269z m405 -1 l0 -225 -182 -3 -183 -2 0 230 0 230 183 -2 182 -3 0
-225z m65 -44 c0 -159 -3 -206 -14 -222 -13 -17 -30 -19 -192 -22 -116 -2
-180 0 -187 7 -8 8 39 11 161 11 230 0 212 -20 212 241 0 131 3 198 10 194 6
-4 10 -84 10 -209z m60 -39 c0 -106 -3 -202 -6 -215 -12 -43 -50 -52 -217 -52
-113 0 -157 3 -165 13 -9 10 16 12 125 9 85 -3 150 0 174 7 63 19 69 41 69
256 0 122 3 184 10 180 6 -4 10 -81 10 -198z"/>
</g>
</svg>
